<mxfile host="drawio-plugin" modified="2021-09-28T17:36:03.942Z" agent="5.0 (X11; Linux x86_64) AppleWebKit/537.36 (KHTML, like Gecko) Chrome/89.0.4389.90 Safari/537.36" etag="FCY3TmAGG6YNIqu1yvwv" version="14.7.4" type="embed"><diagram id="TCcoEWv7qh16H4xvfLQk" name="Page-1"><mxGraphModel dx="1047" dy="723" grid="1" gridSize="10" guides="1" tooltips="1" connect="1" arrows="1" fold="1" page="1" pageScale="1" pageWidth="850" pageHeight="1100" math="0" shadow="0"><root><mxCell id="0"/><mxCell id="1" parent="0"/><mxCell id="6" style="edgeStyle=orthogonalEdgeStyle;rounded=0;orthogonalLoop=1;jettySize=auto;html=1;" parent="1" source="2" target="4" edge="1"><mxGeometry relative="1" as="geometry"/></mxCell><mxCell id="2" value="START" style="strokeWidth=2;html=1;shape=mxgraph.flowchart.start_2;whiteSpace=wrap;" parent="1" vertex="1"><mxGeometry x="375" y="20" width="100" height="60" as="geometry"/></mxCell><mxCell id="8" style="edgeStyle=orthogonalEdgeStyle;rounded=0;orthogonalLoop=1;jettySize=auto;html=1;entryX=0.5;entryY=0;entryDx=0;entryDy=0;" parent="1" source="4" target="19" edge="1"><mxGeometry relative="1" as="geometry"><mxPoint x="260" y="200" as="targetPoint"/></mxGeometry></mxCell><mxCell id="9" value="IF PUBLISHER" style="edgeLabel;html=1;align=center;verticalAlign=middle;resizable=0;points=[];" parent="8" vertex="1" connectable="0"><mxGeometry x="-0.0581" relative="1" as="geometry"><mxPoint as="offset"/></mxGeometry></mxCell><mxCell id="11" style="edgeStyle=orthogonalEdgeStyle;rounded=0;orthogonalLoop=1;jettySize=auto;html=1;entryX=0.573;entryY=0.014;entryDx=0;entryDy=0;entryPerimeter=0;" parent="1" source="4" target="23" edge="1"><mxGeometry relative="1" as="geometry"><mxPoint x="650" y="160" as="targetPoint"/></mxGeometry></mxCell><mxCell id="12" value="IF LISTENER" style="edgeLabel;html=1;align=center;verticalAlign=middle;resizable=0;points=[];" parent="11" vertex="1" connectable="0"><mxGeometry x="-0.103" y="-3" relative="1" as="geometry"><mxPoint x="-3" y="-3" as="offset"/></mxGeometry></mxCell><mxCell id="4" value="" style="strokeWidth=2;html=1;shape=mxgraph.flowchart.decision;whiteSpace=wrap;" parent="1" vertex="1"><mxGeometry x="375" y="140" width="100" height="100" as="geometry"/></mxCell><mxCell id="47" style="edgeStyle=orthogonalEdgeStyle;rounded=0;orthogonalLoop=1;jettySize=auto;html=1;" parent="1" source="7" target="46" edge="1"><mxGeometry relative="1" as="geometry"/></mxCell><mxCell id="7" value="run_publisher()" style="rounded=1;whiteSpace=wrap;html=1;absoluteArcSize=1;arcSize=14;strokeWidth=2;" parent="1" vertex="1"><mxGeometry x="195" y="360" width="100" height="100" as="geometry"/></mxCell><mxCell id="69" style="edgeStyle=orthogonalEdgeStyle;rounded=0;orthogonalLoop=1;jettySize=auto;html=1;" parent="1" source="10" target="68" edge="1"><mxGeometry relative="1" as="geometry"/></mxCell><mxCell id="10" value="run_listener()" style="rounded=1;whiteSpace=wrap;html=1;absoluteArcSize=1;arcSize=14;strokeWidth=2;" parent="1" vertex="1"><mxGeometry x="585" y="360" width="100" height="100" as="geometry"/></mxCell><mxCell id="21" style="edgeStyle=orthogonalEdgeStyle;rounded=0;orthogonalLoop=1;jettySize=auto;html=1;" parent="1" source="13" target="19" edge="1"><mxGeometry relative="1" as="geometry"/></mxCell><mxCell id="13" value="publisher_cfg" style="strokeWidth=2;html=1;shape=mxgraph.flowchart.document2;whiteSpace=wrap;size=0.26666666666666666;" parent="1" vertex="1"><mxGeometry x="50" y="245" width="100" height="60" as="geometry"/></mxCell><mxCell id="18" style="edgeStyle=orthogonalEdgeStyle;rounded=0;orthogonalLoop=1;jettySize=auto;html=1;entryX=1;entryY=0.5;entryDx=0;entryDy=0;" parent="1" source="15" target="23" edge="1"><mxGeometry relative="1" as="geometry"><mxPoint x="660" y="275" as="targetPoint"/></mxGeometry></mxCell><mxCell id="15" value="listener_cfg" style="strokeWidth=2;html=1;shape=mxgraph.flowchart.document2;whiteSpace=wrap;size=0.25;" parent="1" vertex="1"><mxGeometry x="730" y="245" width="100" height="60" as="geometry"/></mxCell><mxCell id="22" style="edgeStyle=orthogonalEdgeStyle;rounded=0;orthogonalLoop=1;jettySize=auto;html=1;entryX=0.5;entryY=0;entryDx=0;entryDy=0;" parent="1" source="19" target="7" edge="1"><mxGeometry relative="1" as="geometry"/></mxCell><mxCell id="19" value="cfg from publisher_cfg" style="shape=parallelogram;html=1;strokeWidth=2;perimeter=parallelogramPerimeter;whiteSpace=wrap;rounded=1;arcSize=12;size=0.23;" parent="1" vertex="1"><mxGeometry x="190" y="240" width="110" height="70" as="geometry"/></mxCell><mxCell id="24" style="edgeStyle=orthogonalEdgeStyle;rounded=0;orthogonalLoop=1;jettySize=auto;html=1;" parent="1" source="23" target="10" edge="1"><mxGeometry relative="1" as="geometry"/></mxCell><mxCell id="23" value="cfg from listener_cfg" style="shape=parallelogram;html=1;strokeWidth=2;perimeter=parallelogramPerimeter;whiteSpace=wrap;rounded=1;arcSize=12;size=0.23;" parent="1" vertex="1"><mxGeometry x="580" y="240" width="110" height="70" as="geometry"/></mxCell><mxCell id="43" style="edgeStyle=orthogonalEdgeStyle;rounded=0;orthogonalLoop=1;jettySize=auto;html=1;" parent="1" source="28" target="42" edge="1"><mxGeometry relative="1" as="geometry"/></mxCell><mxCell id="28" value="publish message" style="rounded=1;whiteSpace=wrap;html=1;absoluteArcSize=1;arcSize=14;strokeWidth=2;" parent="1" vertex="1"><mxGeometry x="195" y="1020" width="100" height="100" as="geometry"/></mxCell><mxCell id="60" style="edgeStyle=orthogonalEdgeStyle;rounded=0;orthogonalLoop=1;jettySize=auto;html=1;entryX=1;entryY=0.5;entryDx=0;entryDy=0;" parent="1" source="42" target="65" edge="1"><mxGeometry relative="1" as="geometry"><Array as="points"><mxPoint x="340" y="1210"/><mxPoint x="340" y="660"/></Array></mxGeometry></mxCell><mxCell id="61" value="TRUE" style="edgeLabel;html=1;align=center;verticalAlign=middle;resizable=0;points=[];" parent="60" vertex="1" connectable="0"><mxGeometry x="-0.1" y="-3" relative="1" as="geometry"><mxPoint x="-3" y="-49" as="offset"/></mxGeometry></mxCell><mxCell id="63" style="edgeStyle=orthogonalEdgeStyle;rounded=0;orthogonalLoop=1;jettySize=auto;html=1;entryX=0;entryY=0.5;entryDx=0;entryDy=0;entryPerimeter=0;" parent="1" source="42" target="64" edge="1"><mxGeometry relative="1" as="geometry"><mxPoint x="245" y="1320" as="targetPoint"/><Array as="points"><mxPoint x="245" y="1330"/></Array></mxGeometry></mxCell><mxCell id="42" value="Is publisher is still active" style="strokeWidth=2;html=1;shape=mxgraph.flowchart.decision;whiteSpace=wrap;" parent="1" vertex="1"><mxGeometry x="195" y="1160" width="100" height="100" as="geometry"/></mxCell><mxCell id="48" style="edgeStyle=orthogonalEdgeStyle;rounded=0;orthogonalLoop=1;jettySize=auto;html=1;entryX=0;entryY=0.5;entryDx=0;entryDy=0;" parent="1" source="45" target="46" edge="1"><mxGeometry relative="1" as="geometry"/></mxCell><mxCell id="45" value="msg.yml" style="strokeWidth=2;html=1;shape=mxgraph.flowchart.document2;whiteSpace=wrap;size=0.26666666666666666;" parent="1" vertex="1"><mxGeometry x="45" y="510" width="100" height="60" as="geometry"/></mxCell><mxCell id="66" style="edgeStyle=orthogonalEdgeStyle;rounded=0;orthogonalLoop=1;jettySize=auto;html=1;entryX=0.5;entryY=0;entryDx=0;entryDy=0;" parent="1" source="46" target="65" edge="1"><mxGeometry relative="1" as="geometry"/></mxCell><mxCell id="46" value="init message from yml file" style="shape=parallelogram;html=1;strokeWidth=2;perimeter=parallelogramPerimeter;whiteSpace=wrap;rounded=1;arcSize=12;size=0.23;" parent="1" vertex="1"><mxGeometry x="190" y="500" width="110" height="80" as="geometry"/></mxCell><mxCell id="51" value="FALSE" style="edgeStyle=orthogonalEdgeStyle;rounded=0;orthogonalLoop=1;jettySize=auto;html=1;" parent="1" source="49" target="28" edge="1"><mxGeometry relative="1" as="geometry"/></mxCell><mxCell id="56" value="TRUE" style="edgeStyle=orthogonalEdgeStyle;rounded=0;orthogonalLoop=1;jettySize=auto;html=1;entryX=0.5;entryY=0;entryDx=0;entryDy=0;" parent="1" source="49" target="55" edge="1"><mxGeometry relative="1" as="geometry"/></mxCell><mxCell id="49" value="has input msg changed" style="strokeWidth=2;html=1;shape=mxgraph.flowchart.decision;whiteSpace=wrap;" parent="1" vertex="1"><mxGeometry x="195" y="770" width="100" height="100" as="geometry"/></mxCell><mxCell id="58" style="edgeStyle=orthogonalEdgeStyle;rounded=0;orthogonalLoop=1;jettySize=auto;html=1;" parent="1" source="55" target="57" edge="1"><mxGeometry relative="1" as="geometry"/></mxCell><mxCell id="55" value="Update msg" style="rounded=1;whiteSpace=wrap;html=1;absoluteArcSize=1;arcSize=14;strokeWidth=2;" parent="1" vertex="1"><mxGeometry x="45" y="840" width="100" height="100" as="geometry"/></mxCell><mxCell id="59" style="edgeStyle=orthogonalEdgeStyle;rounded=0;orthogonalLoop=1;jettySize=auto;html=1;" parent="1" source="57" target="28" edge="1"><mxGeometry relative="1" as="geometry"><Array as="points"><mxPoint x="95" y="1070"/></Array></mxGeometry></mxCell><mxCell id="57" value="msg data" style="shape=parallelogram;html=1;strokeWidth=2;perimeter=parallelogramPerimeter;whiteSpace=wrap;rounded=1;arcSize=12;size=0.23;" parent="1" vertex="1"><mxGeometry x="45" y="970" width="100" height="60" as="geometry"/></mxCell><mxCell id="64" value="END" style="strokeWidth=2;html=1;shape=mxgraph.flowchart.terminator;whiteSpace=wrap;" parent="1" vertex="1"><mxGeometry x="195" y="1310" width="100" height="60" as="geometry"/></mxCell><mxCell id="67" style="edgeStyle=orthogonalEdgeStyle;rounded=0;orthogonalLoop=1;jettySize=auto;html=1;entryX=0.5;entryY=0;entryDx=0;entryDy=0;entryPerimeter=0;" parent="1" source="65" target="49" edge="1"><mxGeometry relative="1" as="geometry"/></mxCell><mxCell id="65" value="Read msg from outside source" style="rounded=1;whiteSpace=wrap;html=1;absoluteArcSize=1;arcSize=14;strokeWidth=2;" parent="1" vertex="1"><mxGeometry x="195" y="610" width="100" height="100" as="geometry"/></mxCell><mxCell id="75" style="edgeStyle=orthogonalEdgeStyle;rounded=0;orthogonalLoop=1;jettySize=auto;html=1;" parent="1" source="68" target="70" edge="1"><mxGeometry relative="1" as="geometry"/></mxCell><mxCell id="68" value="Listen for incoming msg" style="rounded=1;whiteSpace=wrap;html=1;absoluteArcSize=1;arcSize=14;strokeWidth=2;" parent="1" vertex="1"><mxGeometry x="585" y="510" width="100" height="100" as="geometry"/></mxCell><mxCell id="72" value="TRUE" style="edgeStyle=orthogonalEdgeStyle;rounded=0;orthogonalLoop=1;jettySize=auto;html=1;entryX=0.5;entryY=0;entryDx=0;entryDy=0;" parent="1" source="70" target="71" edge="1"><mxGeometry relative="1" as="geometry"/></mxCell><mxCell id="73" value="FALSE" style="edgeStyle=orthogonalEdgeStyle;rounded=0;orthogonalLoop=1;jettySize=auto;html=1;entryX=0;entryY=0.5;entryDx=0;entryDy=0;" parent="1" source="70" target="68" edge="1"><mxGeometry relative="1" as="geometry"><mxPoint x="520" y="570" as="targetPoint"/><Array as="points"><mxPoint x="550" y="700"/><mxPoint x="550" y="560"/></Array></mxGeometry></mxCell><mxCell id="70" value="New incoming msg" style="strokeWidth=2;html=1;shape=mxgraph.flowchart.decision;whiteSpace=wrap;" parent="1" vertex="1"><mxGeometry x="585" y="650" width="100" height="100" as="geometry"/></mxCell><mxCell id="77" style="edgeStyle=orthogonalEdgeStyle;rounded=0;orthogonalLoop=1;jettySize=auto;html=1;entryX=0.5;entryY=0;entryDx=0;entryDy=0;" edge="1" parent="1" source="71" target="76"><mxGeometry relative="1" as="geometry"/></mxCell><mxCell id="71" value="Store in the sink object" style="rounded=1;whiteSpace=wrap;html=1;absoluteArcSize=1;arcSize=14;strokeWidth=2;" parent="1" vertex="1"><mxGeometry x="585" y="810" width="100" height="100" as="geometry"/></mxCell><mxCell id="78" style="edgeStyle=orthogonalEdgeStyle;rounded=0;orthogonalLoop=1;jettySize=auto;html=1;entryX=1;entryY=0.5;entryDx=0;entryDy=0;" edge="1" parent="1" source="76" target="68"><mxGeometry relative="1" as="geometry"><Array as="points"><mxPoint x="740" y="1010"/><mxPoint x="740" y="560"/></Array></mxGeometry></mxCell><mxCell id="79" value="TRUE" style="edgeLabel;html=1;align=center;verticalAlign=middle;resizable=0;points=[];" vertex="1" connectable="0" parent="78"><mxGeometry x="0.1789" relative="1" as="geometry"><mxPoint y="11" as="offset"/></mxGeometry></mxCell><mxCell id="81" value="FALSE" style="edgeStyle=orthogonalEdgeStyle;rounded=0;orthogonalLoop=1;jettySize=auto;html=1;entryX=0.5;entryY=0;entryDx=0;entryDy=0;entryPerimeter=0;" edge="1" parent="1" source="76" target="80"><mxGeometry relative="1" as="geometry"/></mxCell><mxCell id="76" value="Still running" style="rhombus;whiteSpace=wrap;html=1;" vertex="1" parent="1"><mxGeometry x="595" y="970" width="80" height="80" as="geometry"/></mxCell><mxCell id="80" value="END" style="strokeWidth=2;html=1;shape=mxgraph.flowchart.terminator;whiteSpace=wrap;" vertex="1" parent="1"><mxGeometry x="585" y="1120" width="100" height="60" as="geometry"/></mxCell></root></mxGraphModel></diagram></mxfile>